<svg width="453.67816162109375px" height="317px" xmlns="http://www.w3.org/2000/svg" viewBox="23.160919189453125 -83.5 453.67816162109375 317" style="background: none;" preserveAspectRatio="xMidYMid"><defs><linearGradient id="editing-sticker-gradient" x1="0.5" y1="0.2" x2="0.5" y2="0.8"><stop offset="0" stop-color="#6c9668"></stop><stop offset="1" stop-color="#42b0d3"></stop></linearGradient><filter id="editing-sticker" x="-100%" y="-100%" width="300%" height="300%"><feMorphology operator="erode" radius="1" in="SourceAlpha" result="alpha-erode"></feMorphology><feConvolveMatrix order="3,3" divisor="1" kernelMatrix="0 1 0 1 1 1 0 1 0" in="alpha-erode" result="alpha-round"></feConvolveMatrix><feMorphology operator="dilate" radius="3.5" in="alpha-round" result="dilate-shadow"></feMorphology><feGaussianBlur in="dilate-shadow" stdDeviation="1.5" result="shadow"></feGaussianBlur><feFlood flood-color="#fff" result="flood-sticker"></feFlood><feComposite operator="in" in="flood-sticker" in2="alpha-round" result="comp-sticker"></feComposite><feMorphology operator="dilate" radius="3" in="comp-sticker" result="morph-sticker"></feMorphology><feConvolveMatrix order="3,3" divisor="1" kernelMatrix="0 1 0 1 1 1 0 1 0" in="morph-sticker" result="sticker"></feConvolveMatrix><feMerge><feMergeNode in="shadow"></feMergeNode><feMergeNode in="sticker"></feMergeNode><feMergeNode in="SourceGraphic"></feMergeNode></feMerge></filter></defs><g filter="url(#editing-sticker)"><g transform="translate(88.87998104095459, 131.6400032043457)"><path d="M84.32-17.28L84.32-17.28Q87.04-15.68 87.04-12.96L87.04-12.96L87.04-12.96Q87.04-10.88 85.52-9.52L85.52-9.52L85.52-9.52Q84-8.16 81.60-8.16L81.60-8.16L81.60-8.16Q79.84-8.16 78.40-8.80L78.40-8.80L13.76-38.08L13.76-38.08Q11.52-39.04 10.24-41.04L10.24-41.04L10.24-41.04Q8.96-43.04 8.96-45.60L8.96-45.60L8.96-45.60Q8.96-48 10.24-49.92L10.24-49.92L10.24-49.92Q11.52-51.84 13.76-52.80L13.76-52.80L78.40-82.08L78.40-82.08Q80.32-82.88 81.60-82.88L81.60-82.88L81.60-82.88Q84-82.88 85.52-81.52L85.52-81.52L85.52-81.52Q87.04-80.16 87.04-77.92L87.04-77.92L87.04-77.92Q87.04-75.20 84.32-73.76L84.32-73.76L21.28-45.44L84.32-17.28ZM146.56-79.52L146.56-79.52Q153.28-80 153.28-74.08L153.28-74.08L153.28-74.08Q153.28-71.52 151.84-70L151.84-70L151.84-70Q150.40-68.48 146.88-68.16L146.88-68.16L142.08-67.68L142.08-67.68Q131.36-66.72 126.16-60.08L126.16-60.08L126.16-60.08Q120.96-53.44 120.96-44.48L120.96-44.48L120.96-5.60L120.96-5.60Q120.96-2.40 119.20-0.80L119.20-0.80L119.20-0.80Q117.44 0.80 114.56 0.80L114.56 0.80L114.56 0.80Q111.68 0.80 109.84-0.88L109.84-0.88L109.84-0.88Q108-2.56 108-5.60L108-5.60L108-73.12L108-73.12Q108-76.16 109.92-77.84L109.92-77.84L109.92-77.84Q111.84-79.52 114.56-79.52L114.56-79.52L114.56-79.52Q117.12-79.52 118.88-77.84L118.88-77.84L118.88-77.84Q120.64-76.16 120.64-73.28L120.64-73.28L120.64-64.32L120.64-64.32Q124-71.36 130.16-75.04L130.16-75.04L130.16-75.04Q136.32-78.72 144.32-79.36L144.32-79.36L146.56-79.52ZM170.88 0.80L170.88 0.80Q167.04 0.80 164.48-1.68L164.48-1.68L164.48-1.68Q161.92-4.16 161.92-8.16L161.92-8.16L161.92-8.16Q161.92-12.16 164.48-14.72L164.48-14.72L164.48-14.72Q167.04-17.28 170.88-17.28L170.88-17.28L170.88-17.28Q174.56-17.28 177.04-14.72L177.04-14.72L177.04-14.72Q179.52-12.16 179.52-8.16L179.52-8.16L179.52-8.16Q179.52-4.16 177.04-1.68L177.04-1.68L177.04-1.68Q174.56 0.80 170.88 0.80L170.88 0.80ZM207.68 0.80L207.68 0.80Q204.80 0.80 202.96-0.88L202.96-0.88L202.96-0.88Q201.12-2.56 201.12-5.60L201.12-5.60L201.12-73.12L201.12-73.12Q201.12-76.16 202.96-77.84L202.96-77.84L202.96-77.84Q204.80-79.52 207.68-79.52L207.68-79.52L207.68-79.52Q210.56-79.52 212.32-77.84L212.32-77.84L212.32-77.84Q214.08-76.16 214.08-73.12L214.08-73.12L214.08-5.60L214.08-5.60Q214.08-2.40 212.32-0.80L212.32-0.80L212.32-0.80Q210.56 0.80 207.68 0.80L207.68 0.80ZM207.68-96.32L207.68-96.32Q203.84-96.32 201.44-98.56L201.44-98.56L201.44-98.56Q199.04-100.80 199.04-104.48L199.04-104.48L199.04-104.48Q199.04-108 201.44-110.24L201.44-110.24L201.44-110.24Q203.84-112.48 207.68-112.48L207.68-112.48L207.68-112.48Q211.52-112.48 213.92-110.24L213.92-110.24L213.92-110.24Q216.32-108 216.32-104.48L216.32-104.48L216.32-104.48Q216.32-100.80 213.92-98.56L213.92-98.56L213.92-98.56Q211.52-96.32 207.68-96.32L207.68-96.32ZM308.48-52.80L308.48-52.80Q310.72-51.84 312-49.92L312-49.92L312-49.92Q313.28-48 313.28-45.60L313.28-45.60L313.28-45.60Q313.28-43.04 312-41.04L312-41.04L312-41.04Q310.72-39.04 308.48-38.08L308.48-38.08L243.84-8.80L243.84-8.80Q242.40-8.16 240.64-8.16L240.64-8.16L240.64-8.16Q238.40-8.16 236.80-9.52L236.80-9.52L236.80-9.52Q235.20-10.88 235.20-12.96L235.20-12.96L235.20-12.96Q235.20-15.68 238.08-17.28L238.08-17.28L300.96-45.44L238.08-73.76L238.08-73.76Q235.20-75.04 235.20-77.92L235.20-77.92L235.20-77.92Q235.20-80.16 236.72-81.52L236.72-81.52L236.72-81.52Q238.24-82.88 240.64-82.88L240.64-82.88L240.64-82.88Q241.92-82.88 243.84-82.08L243.84-82.08L308.48-52.80Z" fill="url(#editing-sticker-gradient)" stroke="#cce5ea" stroke-width="2.5"></path></g></g><style>text {
  font-size: 64px;
  font-family: Arial Black;
  dominant-baseline: central;
  text-anchor: middle;
}</style></svg>